<svg xmlns="http://www.w3.org/2000/svg" viewBox="0 0 240 240">
  <rect width="240" height="240" rx="32" fill="#121210"/>
  <circle cx="120" cy="120" r="104" fill="none" stroke="#e8b923" stroke-width="2.5"/>
  <circle cx="120" cy="120" r="96" fill="#1b1a17" stroke="#38352c" stroke-width="1"/>

  <path id="arc" d="M 50.7,80 A 80,80 0 0,1 189.3,80" fill="none"/>
  <text font-family="Georgia, 'Times New Roman', serif" font-weight="700" font-size="17" fill="#ece6d6" letter-spacing="0.5">
    <textPath href="#arc" startOffset="50%" text-anchor="middle">Bell(e)s n' Barz</textPath>
  </text>

  <circle cx="30" cy="120" r="4" fill="#e8b923"/>
  <circle cx="210" cy="120" r="4" fill="#e8b923"/>

  <!-- divider accent between the two figures -->
  <g fill="#e8b923">
    <rect x="115" y="132" width="10" height="3" rx="1.5"/>
    <rect x="118.5" y="128.5" width="3" height="10" rx="1.5"/>
  </g>

  <!-- WOMAN (kettlebells) -->
  <g fill="#ece6d6">
    <ellipse cx="83" cy="90" rx="4" ry="8" transform="rotate(25 83 90)"/>
    <circle cx="75" cy="97" r="8"/>
    <rect x="72" y="105" width="6" height="6"/>
    <path d="M 63,112 L 87,112 L 83,128 L 67,128 Z"/>
    <path d="M 67,131 L 83,131 L 85,152 L 65,152 Z"/>
    <path d="M 63,113 L 68,113 L 62,153 L 56,151 Z"/>
    <path d="M 87,113 L 82,113 L 88,153 L 94,151 Z"/>
    <circle cx="58" cy="160" r="3.5"/>
    <ellipse cx="58" cy="169" rx="7" ry="8"/>
    <circle cx="92" cy="160" r="3.5"/>
    <ellipse cx="92" cy="169" rx="7" ry="8"/>
    <path d="M 68,152 L 78,152 L 75,193 L 69,193 Z"/>
    <path d="M 72,152 L 82,152 L 85,193 L 79,193 Z"/>
    <rect x="63" y="193" width="11" height="6" rx="2"/>
    <rect x="80" y="193" width="11" height="6" rx="2"/>
  </g>

  <!-- MAN (overhead barbell press) -->
  <g>
    <path d="M 148,110 Q 143,94 140,79" fill="none" stroke="#ece6d6" stroke-width="9" stroke-linecap="round"/>
    <path d="M 182,110 Q 187,94 190,79" fill="none" stroke="#ece6d6" stroke-width="9" stroke-linecap="round"/>
    <rect x="133" y="63" width="8" height="19" rx="2" fill="#e8b923"/>
    <rect x="199" y="63" width="8" height="19" rx="2" fill="#e8b923"/>
    <rect x="138" y="70" width="64" height="5" rx="2.5" fill="#e8b923"/>
    <g fill="#ece6d6">
      <circle cx="165" cy="95" r="9"/>
      <rect x="161" y="103" width="8" height="6"/>
      <path d="M 143,111 L 187,111 L 181,148 L 149,148 Z"/>
      <path d="M 149,151 L 181,151 L 178,163 L 152,163 Z"/>
      <path d="M 152,163 L 163,163 L 160,207 L 153,207 Z"/>
      <path d="M 167,163 L 178,163 L 187,207 L 179,207 Z"/>
      <rect x="146" y="207" width="14" height="6" rx="2"/>
      <rect x="176" y="207" width="14" height="6" rx="2"/>
    </g>
  </g>

  <path d="M 40,150 A 82,82 0 0,0 200,150" fill="none" stroke="#e8b923" stroke-width="2"/>
</svg>
